<mxfile host="app.diagrams.net" modified="2023-10-27T12:55:53.013Z" agent="Mozilla/5.0 (Macintosh; Intel Mac OS X 10_15_7) AppleWebKit/537.36 (KHTML, like Gecko) Chrome/118.0.0.0 Safari/537.36" etag="aO-DT4AbnQE6qHaizDCk" version="22.0.8" type="github">
  <diagram name="第 1 页" id="7lDt9tAGX07hz09hEjvJ">
    <mxGraphModel dx="863" dy="562" grid="0" gridSize="10" guides="1" tooltips="1" connect="1" arrows="1" fold="1" page="1" pageScale="1" pageWidth="1654" pageHeight="2336" math="0" shadow="0">
      <root>
        <mxCell id="0" />
        <mxCell id="1" parent="0" />
        <mxCell id="ddBHCUhvNYBQv3NgOMkg-4" style="rounded=0;orthogonalLoop=1;jettySize=auto;html=1;exitX=0.5;exitY=1;exitDx=0;exitDy=0;entryX=0.5;entryY=0;entryDx=0;entryDy=0;strokeColor=default;endArrow=none;endFill=0;startArrow=none;startFill=0;" edge="1" parent="1" source="ddBHCUhvNYBQv3NgOMkg-1" target="ddBHCUhvNYBQv3NgOMkg-3">
          <mxGeometry relative="1" as="geometry" />
        </mxCell>
        <mxCell id="ddBHCUhvNYBQv3NgOMkg-5" style="rounded=0;orthogonalLoop=1;jettySize=auto;html=1;exitX=0.5;exitY=1;exitDx=0;exitDy=0;entryX=0.5;entryY=0;entryDx=0;entryDy=0;startArrow=none;startFill=0;endArrow=none;endFill=0;" edge="1" parent="1" source="ddBHCUhvNYBQv3NgOMkg-18" target="ddBHCUhvNYBQv3NgOMkg-2">
          <mxGeometry relative="1" as="geometry" />
        </mxCell>
        <mxCell id="ddBHCUhvNYBQv3NgOMkg-1" value="1" style="ellipse;whiteSpace=wrap;html=1;aspect=fixed;" vertex="1" parent="1">
          <mxGeometry x="40" y="40" width="40" height="40" as="geometry" />
        </mxCell>
        <mxCell id="ddBHCUhvNYBQv3NgOMkg-2" value="3" style="ellipse;whiteSpace=wrap;html=1;aspect=fixed;" vertex="1" parent="1">
          <mxGeometry x="160" y="120" width="40" height="40" as="geometry" />
        </mxCell>
        <mxCell id="ddBHCUhvNYBQv3NgOMkg-6" style="rounded=0;orthogonalLoop=1;jettySize=auto;html=1;exitX=1;exitY=0.5;exitDx=0;exitDy=0;entryX=0;entryY=0.5;entryDx=0;entryDy=0;startArrow=none;startFill=0;endArrow=none;endFill=0;" edge="1" parent="1">
          <mxGeometry relative="1" as="geometry">
            <mxPoint x="80" y="139.64" as="sourcePoint" />
            <mxPoint x="160.000000000005" y="139.64" as="targetPoint" />
          </mxGeometry>
        </mxCell>
        <mxCell id="ddBHCUhvNYBQv3NgOMkg-3" value="2" style="ellipse;whiteSpace=wrap;html=1;aspect=fixed;" vertex="1" parent="1">
          <mxGeometry x="40" y="120" width="40" height="40" as="geometry" />
        </mxCell>
        <mxCell id="ddBHCUhvNYBQv3NgOMkg-23" style="edgeStyle=orthogonalEdgeStyle;rounded=0;orthogonalLoop=1;jettySize=auto;html=1;exitX=1;exitY=0.5;exitDx=0;exitDy=0;" edge="1" parent="1" source="ddBHCUhvNYBQv3NgOMkg-7" target="ddBHCUhvNYBQv3NgOMkg-10">
          <mxGeometry relative="1" as="geometry" />
        </mxCell>
        <mxCell id="ddBHCUhvNYBQv3NgOMkg-7" value="1" style="rounded=0;whiteSpace=wrap;html=1;" vertex="1" parent="1">
          <mxGeometry x="280" y="40" width="40" height="40" as="geometry" />
        </mxCell>
        <mxCell id="ddBHCUhvNYBQv3NgOMkg-30" style="edgeStyle=orthogonalEdgeStyle;rounded=0;orthogonalLoop=1;jettySize=auto;html=1;exitX=1;exitY=0.5;exitDx=0;exitDy=0;entryX=0;entryY=0.5;entryDx=0;entryDy=0;" edge="1" parent="1" source="ddBHCUhvNYBQv3NgOMkg-8" target="ddBHCUhvNYBQv3NgOMkg-13">
          <mxGeometry relative="1" as="geometry" />
        </mxCell>
        <mxCell id="ddBHCUhvNYBQv3NgOMkg-8" value="2" style="rounded=0;whiteSpace=wrap;html=1;" vertex="1" parent="1">
          <mxGeometry x="280" y="80" width="40" height="40" as="geometry" />
        </mxCell>
        <mxCell id="ddBHCUhvNYBQv3NgOMkg-31" style="edgeStyle=orthogonalEdgeStyle;rounded=0;orthogonalLoop=1;jettySize=auto;html=1;exitX=1;exitY=0.5;exitDx=0;exitDy=0;entryX=0;entryY=0.5;entryDx=0;entryDy=0;" edge="1" parent="1" source="ddBHCUhvNYBQv3NgOMkg-9" target="ddBHCUhvNYBQv3NgOMkg-17">
          <mxGeometry relative="1" as="geometry" />
        </mxCell>
        <mxCell id="ddBHCUhvNYBQv3NgOMkg-9" value="3" style="rounded=0;whiteSpace=wrap;html=1;" vertex="1" parent="1">
          <mxGeometry x="280" y="120" width="40" height="40" as="geometry" />
        </mxCell>
        <mxCell id="ddBHCUhvNYBQv3NgOMkg-24" style="edgeStyle=orthogonalEdgeStyle;rounded=0;orthogonalLoop=1;jettySize=auto;html=1;exitX=1;exitY=0.5;exitDx=0;exitDy=0;" edge="1" parent="1" source="ddBHCUhvNYBQv3NgOMkg-10" target="ddBHCUhvNYBQv3NgOMkg-14">
          <mxGeometry relative="1" as="geometry" />
        </mxCell>
        <mxCell id="ddBHCUhvNYBQv3NgOMkg-10" value="2" style="rounded=0;whiteSpace=wrap;html=1;" vertex="1" parent="1">
          <mxGeometry x="360" y="50" width="40" height="20" as="geometry" />
        </mxCell>
        <mxCell id="ddBHCUhvNYBQv3NgOMkg-33" style="edgeStyle=orthogonalEdgeStyle;rounded=0;orthogonalLoop=1;jettySize=auto;html=1;exitX=1;exitY=0.5;exitDx=0;exitDy=0;" edge="1" parent="1" source="ddBHCUhvNYBQv3NgOMkg-13" target="ddBHCUhvNYBQv3NgOMkg-15">
          <mxGeometry relative="1" as="geometry" />
        </mxCell>
        <mxCell id="ddBHCUhvNYBQv3NgOMkg-13" value="1" style="rounded=0;whiteSpace=wrap;html=1;" vertex="1" parent="1">
          <mxGeometry x="360" y="90" width="40" height="20" as="geometry" />
        </mxCell>
        <mxCell id="ddBHCUhvNYBQv3NgOMkg-29" style="edgeStyle=orthogonalEdgeStyle;rounded=0;orthogonalLoop=1;jettySize=auto;html=1;exitX=1;exitY=0.5;exitDx=0;exitDy=0;entryX=0;entryY=0.5;entryDx=0;entryDy=0;" edge="1" parent="1" source="ddBHCUhvNYBQv3NgOMkg-14" target="ddBHCUhvNYBQv3NgOMkg-25">
          <mxGeometry relative="1" as="geometry" />
        </mxCell>
        <mxCell id="ddBHCUhvNYBQv3NgOMkg-14" value="4" style="rounded=0;whiteSpace=wrap;html=1;" vertex="1" parent="1">
          <mxGeometry x="440" y="50" width="40" height="20" as="geometry" />
        </mxCell>
        <mxCell id="ddBHCUhvNYBQv3NgOMkg-38" style="edgeStyle=orthogonalEdgeStyle;rounded=0;orthogonalLoop=1;jettySize=auto;html=1;exitX=1;exitY=0.5;exitDx=0;exitDy=0;" edge="1" parent="1" source="ddBHCUhvNYBQv3NgOMkg-15" target="ddBHCUhvNYBQv3NgOMkg-26">
          <mxGeometry relative="1" as="geometry" />
        </mxCell>
        <mxCell id="ddBHCUhvNYBQv3NgOMkg-15" value="3" style="rounded=0;whiteSpace=wrap;html=1;" vertex="1" parent="1">
          <mxGeometry x="440" y="90" width="40" height="20" as="geometry" />
        </mxCell>
        <mxCell id="ddBHCUhvNYBQv3NgOMkg-37" style="edgeStyle=orthogonalEdgeStyle;rounded=0;orthogonalLoop=1;jettySize=auto;html=1;exitX=1;exitY=0.5;exitDx=0;exitDy=0;" edge="1" parent="1" source="ddBHCUhvNYBQv3NgOMkg-16" target="ddBHCUhvNYBQv3NgOMkg-27">
          <mxGeometry relative="1" as="geometry" />
        </mxCell>
        <mxCell id="ddBHCUhvNYBQv3NgOMkg-16" value="4" style="rounded=0;whiteSpace=wrap;html=1;" vertex="1" parent="1">
          <mxGeometry x="440" y="130" width="40" height="20" as="geometry" />
        </mxCell>
        <mxCell id="ddBHCUhvNYBQv3NgOMkg-34" style="edgeStyle=orthogonalEdgeStyle;rounded=0;orthogonalLoop=1;jettySize=auto;html=1;exitX=1;exitY=0.5;exitDx=0;exitDy=0;entryX=0;entryY=0.5;entryDx=0;entryDy=0;" edge="1" parent="1" source="ddBHCUhvNYBQv3NgOMkg-17" target="ddBHCUhvNYBQv3NgOMkg-16">
          <mxGeometry relative="1" as="geometry" />
        </mxCell>
        <mxCell id="ddBHCUhvNYBQv3NgOMkg-17" value="2" style="rounded=0;whiteSpace=wrap;html=1;" vertex="1" parent="1">
          <mxGeometry x="360" y="130" width="40" height="20" as="geometry" />
        </mxCell>
        <mxCell id="ddBHCUhvNYBQv3NgOMkg-18" value="4" style="ellipse;whiteSpace=wrap;html=1;aspect=fixed;" vertex="1" parent="1">
          <mxGeometry x="160" y="40" width="40" height="40" as="geometry" />
        </mxCell>
        <mxCell id="ddBHCUhvNYBQv3NgOMkg-19" style="rounded=0;orthogonalLoop=1;jettySize=auto;html=1;exitX=1;exitY=0.5;exitDx=0;exitDy=0;entryX=0;entryY=0.5;entryDx=0;entryDy=0;startArrow=none;startFill=0;endArrow=none;endFill=0;" edge="1" parent="1">
          <mxGeometry relative="1" as="geometry">
            <mxPoint x="80" y="64.64" as="sourcePoint" />
            <mxPoint x="160" y="64.64" as="targetPoint" />
          </mxGeometry>
        </mxCell>
        <mxCell id="ddBHCUhvNYBQv3NgOMkg-32" style="edgeStyle=orthogonalEdgeStyle;rounded=0;orthogonalLoop=1;jettySize=auto;html=1;exitX=1;exitY=0.5;exitDx=0;exitDy=0;entryX=0;entryY=0.5;entryDx=0;entryDy=0;" edge="1" parent="1" source="ddBHCUhvNYBQv3NgOMkg-20" target="ddBHCUhvNYBQv3NgOMkg-22">
          <mxGeometry relative="1" as="geometry" />
        </mxCell>
        <mxCell id="ddBHCUhvNYBQv3NgOMkg-20" value="4" style="rounded=0;whiteSpace=wrap;html=1;" vertex="1" parent="1">
          <mxGeometry x="280" y="160" width="40" height="40" as="geometry" />
        </mxCell>
        <mxCell id="ddBHCUhvNYBQv3NgOMkg-36" style="edgeStyle=orthogonalEdgeStyle;rounded=0;orthogonalLoop=1;jettySize=auto;html=1;exitX=1;exitY=0.5;exitDx=0;exitDy=0;entryX=0;entryY=0.5;entryDx=0;entryDy=0;" edge="1" parent="1" source="ddBHCUhvNYBQv3NgOMkg-21" target="ddBHCUhvNYBQv3NgOMkg-28">
          <mxGeometry relative="1" as="geometry" />
        </mxCell>
        <mxCell id="ddBHCUhvNYBQv3NgOMkg-21" value="3" style="rounded=0;whiteSpace=wrap;html=1;" vertex="1" parent="1">
          <mxGeometry x="440" y="170" width="40" height="20" as="geometry" />
        </mxCell>
        <mxCell id="ddBHCUhvNYBQv3NgOMkg-35" style="edgeStyle=orthogonalEdgeStyle;rounded=0;orthogonalLoop=1;jettySize=auto;html=1;exitX=1;exitY=0.5;exitDx=0;exitDy=0;entryX=0;entryY=0.5;entryDx=0;entryDy=0;" edge="1" parent="1" source="ddBHCUhvNYBQv3NgOMkg-22" target="ddBHCUhvNYBQv3NgOMkg-21">
          <mxGeometry relative="1" as="geometry" />
        </mxCell>
        <mxCell id="ddBHCUhvNYBQv3NgOMkg-22" value="1" style="rounded=0;whiteSpace=wrap;html=1;" vertex="1" parent="1">
          <mxGeometry x="360" y="170" width="40" height="20" as="geometry" />
        </mxCell>
        <mxCell id="ddBHCUhvNYBQv3NgOMkg-25" value="NULL" style="rounded=0;whiteSpace=wrap;html=1;" vertex="1" parent="1">
          <mxGeometry x="520" y="50" width="40" height="20" as="geometry" />
        </mxCell>
        <mxCell id="ddBHCUhvNYBQv3NgOMkg-26" value="NULL" style="rounded=0;whiteSpace=wrap;html=1;" vertex="1" parent="1">
          <mxGeometry x="520" y="90" width="40" height="20" as="geometry" />
        </mxCell>
        <mxCell id="ddBHCUhvNYBQv3NgOMkg-27" value="NULL" style="rounded=0;whiteSpace=wrap;html=1;" vertex="1" parent="1">
          <mxGeometry x="520" y="130" width="40" height="20" as="geometry" />
        </mxCell>
        <mxCell id="ddBHCUhvNYBQv3NgOMkg-28" value="NULL" style="rounded=0;whiteSpace=wrap;html=1;" vertex="1" parent="1">
          <mxGeometry x="520" y="170" width="40" height="20" as="geometry" />
        </mxCell>
      </root>
    </mxGraphModel>
  </diagram>
</mxfile>
